{
	"asset":{
		"generator":"Khronos glTF Blender I/O v4.3.47",
		"version":"2.0"
	},
	"scene":0,
	"scenes":[
		{
			"name":"Scene",
			"nodes":[
				0,
				1,
				2,
				3,
				4,
				5,
				6,
				7,
				8,
				9,
				10,
				11
			]
		}
	],
	"nodes":[
		{
			"mesh":0,
			"name":"plane",
			"rotation":[
				0,
				0,
				-0.7071068286895752,
				0.7071068286895752
			]
		},
		{
			"mesh":1,
			"name":"Cylinder.001",
			"rotation":[
				0.06930858641862869,
				0.06930858641862869,
				-0.703701913356781,
				0.7037018537521362
			],
			"scale":[
				0.30000004172325134,
				0.30000001192092896,
				0.30000004172325134
			],
			"translation":[
				-7.620574474334717,
				-0.6628446578979492,
				-8
			]
		},
		{
			"mesh":2,
			"name":"Cube.001",
			"scale":[
				0.30000001192092896,
				0.30000001192092896,
				0.30000001192092896
			],
			"translation":[
				-7.166011333465576,
				-0.5973217487335205,
				-8
			]
		},
		{
			"mesh":3,
			"name":"Cylinder.002",
			"rotation":[
				0.06930858641862869,
				0.06930858641862869,
				-0.703701913356781,
				0.7037018537521362
			],
			"scale":[
				0.30000004172325134,
				0.30000001192092896,
				0.30000004172325134
			],
			"translation":[
				-7.620574474334717,
				-0.6628446578979492,
				8
			]
		},
		{
			"mesh":4,
			"name":"Cube.002",
			"scale":[
				0.30000001192092896,
				0.30000001192092896,
				0.30000001192092896
			],
			"translation":[
				-7.166011333465576,
				-0.5973217487335205,
				8
			]
		},
		{
			"mesh":5,
			"name":"Cylinder.003",
			"rotation":[
				0.06930858641862869,
				0.06930858641862869,
				-0.703701913356781,
				0.7037018537521362
			],
			"scale":[
				0.30000004172325134,
				0.30000001192092896,
				0.30000004172325134
			],
			"translation":[
				-14.600701332092285,
				-0.6628446578979492,
				20
			]
		},
		{
			"mesh":6,
			"name":"Cylinder.004",
			"rotation":[
				0.06930858641862869,
				0.06930858641862869,
				-0.703701913356781,
				0.7037018537521362
			],
			"scale":[
				0.30000004172325134,
				0.30000001192092896,
				0.30000004172325134
			],
			"translation":[
				-14.600701332092285,
				-0.6628446578979492,
				-20
			]
		},
		{
			"mesh":7,
			"name":"Cube.003",
			"scale":[
				0.30000001192092896,
				0.30000001192092896,
				0.30000001192092896
			],
			"translation":[
				-14.146138191223145,
				-0.5973217487335205,
				20
			]
		},
		{
			"mesh":8,
			"name":"Cube.004",
			"scale":[
				0.30000001192092896,
				0.30000001192092896,
				0.30000001192092896
			],
			"translation":[
				-14.146138191223145,
				-0.5973217487335205,
				-20
			]
		},
		{
			"mesh":9,
			"name":"Cylinder",
			"rotation":[
				0,
				0,
				-0.7071068286895752,
				0.7071068286895752
			],
			"scale":[
				0.7355785965919495,
				0.7355785965919495,
				0.7355785965919495
			],
			"translation":[
				-13.10527229309082,
				-0.4722200036048889,
				0
			]
		},
		{
			"mesh":10,
			"name":"Cylinder.005",
			"rotation":[
				0,
				0,
				-0.7071068286895752,
				0.7071068286895752
			],
			"scale":[
				0.7355785965919495,
				0.7355785965919495,
				0.7355785965919495
			],
			"translation":[
				-13.10527229309082,
				-0.4722200036048889,
				1.600000023841858
			]
		},
		{
			"mesh":11,
			"name":"Cylinder.006",
			"rotation":[
				0,
				0,
				-0.7071068286895752,
				0.7071068286895752
			],
			"scale":[
				0.7355785965919495,
				0.7355785965919495,
				0.7355785965919495
			],
			"translation":[
				-13.10527229309082,
				-0.4722200036048889,
				-1.600000023841858
			]
		}
	],
	"materials":[
		{
			"doubleSided":true,
			"name":"base",
			"pbrMetallicRoughness":{
				"baseColorFactor":[
					0.07295937836170197,
					0.07398511469364166,
					0.07194225490093231,
					1
				],
				"metallicFactor":0.9599999785423279
			}
		},
		{
			"doubleSided":true,
			"name":"engine_base",
			"pbrMetallicRoughness":{
				"baseColorFactor":[
					0.03035452589392662,
					0.03035452589392662,
					0.03035452589392662,
					1
				],
				"metallicFactor":0,
				"roughnessFactor":0.5
			}
		},
		{
			"doubleSided":true,
			"emissiveFactor":[
				1,
				0.6376804113388062,
				0.10656963288784027
			],
			"name":"engine_fire",
			"pbrMetallicRoughness":{
				"baseColorFactor":[
					0,
					0,
					0,
					1
				]
			}
		},
		{
			"doubleSided":true,
			"name":"engine_base.001",
			"pbrMetallicRoughness":{
				"baseColorFactor":[
					0.03035452589392662,
					0.03035452589392662,
					0.03035452589392662,
					1
				],
				"metallicFactor":0,
				"roughnessFactor":0.5
			}
		},
		{
			"doubleSided":true,
			"name":"engine_base.002",
			"pbrMetallicRoughness":{
				"baseColorFactor":[
					0.03035452589392662,
					0.03035452589392662,
					0.03035452589392662,
					1
				],
				"metallicFactor":0,
				"roughnessFactor":0.5
			}
		},
		{
			"doubleSided":true,
			"name":"engine_base.003",
			"pbrMetallicRoughness":{
				"baseColorFactor":[
					0.03035452589392662,
					0.03035452589392662,
					0.03035452589392662,
					1
				],
				"metallicFactor":0,
				"roughnessFactor":0.5
			}
		}
	],
	"meshes":[
		{
			"name":"Plane.002",
			"primitives":[
				{
					"attributes":{
						"POSITION":0,
						"NORMAL":1,
						"TEXCOORD_0":2
					},
					"indices":3,
					"material":0
				}
			]
		},
		{
			"name":"Cylinder.001",
			"primitives":[
				{
					"attributes":{
						"POSITION":4,
						"NORMAL":5,
						"TEXCOORD_0":6
					},
					"indices":7,
					"material":1
				},
				{
					"attributes":{
						"POSITION":8,
						"NORMAL":9,
						"TEXCOORD_0":10
					},
					"indices":11,
					"material":2
				}
			]
		},
		{
			"name":"Cube.003",
			"primitives":[
				{
					"attributes":{
						"POSITION":12,
						"NORMAL":13,
						"TEXCOORD_0":14
					},
					"indices":15,
					"material":1
				}
			]
		},
		{
			"name":"Cylinder.002",
			"primitives":[
				{
					"attributes":{
						"POSITION":16,
						"NORMAL":17,
						"TEXCOORD_0":18
					},
					"indices":7,
					"material":3
				},
				{
					"attributes":{
						"POSITION":19,
						"NORMAL":20,
						"TEXCOORD_0":21
					},
					"indices":11,
					"material":2
				}
			]
		},
		{
			"name":"Cube.004",
			"primitives":[
				{
					"attributes":{
						"POSITION":22,
						"NORMAL":23,
						"TEXCOORD_0":24
					},
					"indices":15,
					"material":3
				}
			]
		},
		{
			"name":"Cylinder.003",
			"primitives":[
				{
					"attributes":{
						"POSITION":25,
						"NORMAL":26,
						"TEXCOORD_0":27
					},
					"indices":7,
					"material":4
				},
				{
					"attributes":{
						"POSITION":28,
						"NORMAL":29,
						"TEXCOORD_0":30
					},
					"indices":11,
					"material":2
				}
			]
		},
		{
			"name":"Cylinder.004",
			"primitives":[
				{
					"attributes":{
						"POSITION":31,
						"NORMAL":32,
						"TEXCOORD_0":33
					},
					"indices":7,
					"material":5
				},
				{
					"attributes":{
						"POSITION":34,
						"NORMAL":35,
						"TEXCOORD_0":36
					},
					"indices":11,
					"material":2
				}
			]
		},
		{
			"name":"Cube.005",
			"primitives":[
				{
					"attributes":{
						"POSITION":37,
						"NORMAL":38,
						"TEXCOORD_0":39
					},
					"indices":15,
					"material":4
				}
			]
		},
		{
			"name":"Cube.006",
			"primitives":[
				{
					"attributes":{
						"POSITION":40,
						"NORMAL":41,
						"TEXCOORD_0":42
					},
					"indices":15,
					"material":5
				}
			]
		},
		{
			"name":"Cylinder.005",
			"primitives":[
				{
					"attributes":{
						"POSITION":43,
						"NORMAL":44,
						"TEXCOORD_0":45
					},
					"indices":46,
					"material":1
				},
				{
					"attributes":{
						"POSITION":47,
						"NORMAL":48,
						"TEXCOORD_0":49
					},
					"indices":11,
					"material":2
				}
			]
		},
		{
			"name":"Cylinder.006",
			"primitives":[
				{
					"attributes":{
						"POSITION":50,
						"NORMAL":51,
						"TEXCOORD_0":52
					},
					"indices":53,
					"material":1
				},
				{
					"attributes":{
						"POSITION":54,
						"NORMAL":55,
						"TEXCOORD_0":56
					},
					"indices":11,
					"material":2
				}
			]
		},
		{
			"name":"Cylinder.007",
			"primitives":[
				{
					"attributes":{
						"POSITION":57,
						"NORMAL":58,
						"TEXCOORD_0":59
					},
					"indices":60,
					"material":1
				},
				{
					"attributes":{
						"POSITION":61,
						"NORMAL":62,
						"TEXCOORD_0":63
					},
					"indices":11,
					"material":2
				}
			]
		}
	],
	"accessors":[
		{
			"bufferView":0,
			"componentType":5126,
			"count":390,
			"max":[
				1.363743543624878,
				-1.0552793741226196,
				21.411727905273438
			],
			"min":[
				-0.47201964259147644,
				-18.021045684814453,
				-21.411727905273438
			],
			"type":"VEC3"
		},
		{
			"bufferView":1,
			"componentType":5126,
			"count":390,
			"type":"VEC3"
		},
		{
			"bufferView":2,
			"componentType":5126,
			"count":390,
			"type":"VEC2"
		},
		{
			"bufferView":3,
			"componentType":5123,
			"count":648,
			"type":"SCALAR"
		},
		{
			"bufferView":4,
			"componentType":5126,
			"count":240,
			"max":[
				1,
				2,
				1
			],
			"min":[
				-1,
				-1.5,
				-1
			],
			"type":"VEC3"
		},
		{
			"bufferView":5,
			"componentType":5126,
			"count":240,
			"type":"VEC3"
		},
		{
			"bufferView":6,
			"componentType":5126,
			"count":240,
			"type":"VEC2"
		},
		{
			"bufferView":7,
			"componentType":5123,
			"count":426,
			"type":"SCALAR"
		},
		{
			"bufferView":8,
			"componentType":5126,
			"count":16,
			"max":[
				0.8470613360404968,
				-1.399999976158142,
				0.8470613360404968
			],
			"min":[
				-0.8470613360404968,
				-1.399999976158142,
				-0.8470613360404968
			],
			"type":"VEC3"
		},
		{
			"bufferView":9,
			"componentType":5126,
			"count":16,
			"type":"VEC3"
		},
		{
			"bufferView":10,
			"componentType":5126,
			"count":16,
			"type":"VEC2"
		},
		{
			"bufferView":11,
			"componentType":5123,
			"count":42,
			"type":"SCALAR"
		},
		{
			"bufferView":12,
			"componentType":5126,
			"count":97,
			"max":[
				1.5,
				1.5,
				1.628312587738037
			],
			"min":[
				-1.5,
				-1.5,
				-1.628312587738037
			],
			"type":"VEC3"
		},
		{
			"bufferView":13,
			"componentType":5126,
			"count":97,
			"type":"VEC3"
		},
		{
			"bufferView":14,
			"componentType":5126,
			"count":97,
			"type":"VEC2"
		},
		{
			"bufferView":15,
			"componentType":5123,
			"count":153,
			"type":"SCALAR"
		},
		{
			"bufferView":16,
			"componentType":5126,
			"count":240,
			"max":[
				1,
				2,
				1
			],
			"min":[
				-1,
				-1.5,
				-1
			],
			"type":"VEC3"
		},
		{
			"bufferView":17,
			"componentType":5126,
			"count":240,
			"type":"VEC3"
		},
		{
			"bufferView":18,
			"componentType":5126,
			"count":240,
			"type":"VEC2"
		},
		{
			"bufferView":19,
			"componentType":5126,
			"count":16,
			"max":[
				0.8470613360404968,
				-1.399999976158142,
				0.8470613360404968
			],
			"min":[
				-0.8470613360404968,
				-1.399999976158142,
				-0.8470613360404968
			],
			"type":"VEC3"
		},
		{
			"bufferView":20,
			"componentType":5126,
			"count":16,
			"type":"VEC3"
		},
		{
			"bufferView":21,
			"componentType":5126,
			"count":16,
			"type":"VEC2"
		},
		{
			"bufferView":22,
			"componentType":5126,
			"count":97,
			"max":[
				1.5,
				1.5,
				1.628312587738037
			],
			"min":[
				-1.5,
				-1.5,
				-1.628312587738037
			],
			"type":"VEC3"
		},
		{
			"bufferView":23,
			"componentType":5126,
			"count":97,
			"type":"VEC3"
		},
		{
			"bufferView":24,
			"componentType":5126,
			"count":97,
			"type":"VEC2"
		},
		{
			"bufferView":25,
			"componentType":5126,
			"count":240,
			"max":[
				1,
				2,
				1
			],
			"min":[
				-1,
				-1.5,
				-1
			],
			"type":"VEC3"
		},
		{
			"bufferView":26,
			"componentType":5126,
			"count":240,
			"type":"VEC3"
		},
		{
			"bufferView":27,
			"componentType":5126,
			"count":240,
			"type":"VEC2"
		},
		{
			"bufferView":28,
			"componentType":5126,
			"count":16,
			"max":[
				0.8470613360404968,
				-1.399999976158142,
				0.8470613360404968
			],
			"min":[
				-0.8470613360404968,
				-1.399999976158142,
				-0.8470613360404968
			],
			"type":"VEC3"
		},
		{
			"bufferView":29,
			"componentType":5126,
			"count":16,
			"type":"VEC3"
		},
		{
			"bufferView":30,
			"componentType":5126,
			"count":16,
			"type":"VEC2"
		},
		{
			"bufferView":31,
			"componentType":5126,
			"count":240,
			"max":[
				1,
				2,
				1
			],
			"min":[
				-1,
				-1.5,
				-1
			],
			"type":"VEC3"
		},
		{
			"bufferView":32,
			"componentType":5126,
			"count":240,
			"type":"VEC3"
		},
		{
			"bufferView":33,
			"componentType":5126,
			"count":240,
			"type":"VEC2"
		},
		{
			"bufferView":34,
			"componentType":5126,
			"count":16,
			"max":[
				0.8470613360404968,
				-1.399999976158142,
				0.8470613360404968
			],
			"min":[
				-0.8470613360404968,
				-1.399999976158142,
				-0.8470613360404968
			],
			"type":"VEC3"
		},
		{
			"bufferView":35,
			"componentType":5126,
			"count":16,
			"type":"VEC3"
		},
		{
			"bufferView":36,
			"componentType":5126,
			"count":16,
			"type":"VEC2"
		},
		{
			"bufferView":37,
			"componentType":5126,
			"count":97,
			"max":[
				1.5,
				1.5,
				1.628312587738037
			],
			"min":[
				-1.5,
				-1.5,
				-1.628312587738037
			],
			"type":"VEC3"
		},
		{
			"bufferView":38,
			"componentType":5126,
			"count":97,
			"type":"VEC3"
		},
		{
			"bufferView":39,
			"componentType":5126,
			"count":97,
			"type":"VEC2"
		},
		{
			"bufferView":40,
			"componentType":5126,
			"count":97,
			"max":[
				1.5,
				1.5,
				1.628312587738037
			],
			"min":[
				-1.5,
				-1.5,
				-1.628312587738037
			],
			"type":"VEC3"
		},
		{
			"bufferView":41,
			"componentType":5126,
			"count":97,
			"type":"VEC3"
		},
		{
			"bufferView":42,
			"componentType":5126,
			"count":97,
			"type":"VEC2"
		},
		{
			"bufferView":43,
			"componentType":5126,
			"count":176,
			"max":[
				1,
				1.5,
				1
			],
			"min":[
				-1.0000001192092896,
				0.7931015491485596,
				-1
			],
			"type":"VEC3"
		},
		{
			"bufferView":44,
			"componentType":5126,
			"count":176,
			"type":"VEC3"
		},
		{
			"bufferView":45,
			"componentType":5126,
			"count":176,
			"type":"VEC2"
		},
		{
			"bufferView":46,
			"componentType":5123,
			"count":330,
			"type":"SCALAR"
		},
		{
			"bufferView":47,
			"componentType":5126,
			"count":16,
			"max":[
				0.898040771484375,
				1.2009437084197998,
				0.8980408906936646
			],
			"min":[
				-0.8980410099029541,
				1.2009437084197998,
				-0.8980408906936646
			],
			"type":"VEC3"
		},
		{
			"bufferView":48,
			"componentType":5126,
			"count":16,
			"type":"VEC3"
		},
		{
			"bufferView":49,
			"componentType":5126,
			"count":16,
			"type":"VEC2"
		},
		{
			"bufferView":50,
			"componentType":5126,
			"count":176,
			"max":[
				1,
				1.5,
				1
			],
			"min":[
				-1.0000001192092896,
				0.7931015491485596,
				-1
			],
			"type":"VEC3"
		},
		{
			"bufferView":51,
			"componentType":5126,
			"count":176,
			"type":"VEC3"
		},
		{
			"bufferView":52,
			"componentType":5126,
			"count":176,
			"type":"VEC2"
		},
		{
			"bufferView":53,
			"componentType":5123,
			"count":330,
			"type":"SCALAR"
		},
		{
			"bufferView":54,
			"componentType":5126,
			"count":16,
			"max":[
				0.898040771484375,
				1.2009437084197998,
				0.8980408906936646
			],
			"min":[
				-0.8980410099029541,
				1.2009437084197998,
				-0.8980408906936646
			],
			"type":"VEC3"
		},
		{
			"bufferView":55,
			"componentType":5126,
			"count":16,
			"type":"VEC3"
		},
		{
			"bufferView":56,
			"componentType":5126,
			"count":16,
			"type":"VEC2"
		},
		{
			"bufferView":57,
			"componentType":5126,
			"count":176,
			"max":[
				1,
				1.5,
				1
			],
			"min":[
				-1.0000001192092896,
				0.7931015491485596,
				-1
			],
			"type":"VEC3"
		},
		{
			"bufferView":58,
			"componentType":5126,
			"count":176,
			"type":"VEC3"
		},
		{
			"bufferView":59,
			"componentType":5126,
			"count":176,
			"type":"VEC2"
		},
		{
			"bufferView":60,
			"componentType":5123,
			"count":330,
			"type":"SCALAR"
		},
		{
			"bufferView":61,
			"componentType":5126,
			"count":16,
			"max":[
				0.898040771484375,
				1.2009437084197998,
				0.8980408906936646
			],
			"min":[
				-0.8980410099029541,
				1.2009437084197998,
				-0.8980408906936646
			],
			"type":"VEC3"
		},
		{
			"bufferView":62,
			"componentType":5126,
			"count":16,
			"type":"VEC3"
		},
		{
			"bufferView":63,
			"componentType":5126,
			"count":16,
			"type":"VEC2"
		}
	],
	"bufferViews":[
		{
			"buffer":0,
			"byteLength":4680,
			"byteOffset":0,
			"target":34962
		},
		{
			"buffer":0,
			"byteLength":4680,
			"byteOffset":4680,
			"target":34962
		},
		{
			"buffer":0,
			"byteLength":3120,
			"byteOffset":9360,
			"target":34962
		},
		{
			"buffer":0,
			"byteLength":1296,
			"byteOffset":12480,
			"target":34963
		},
		{
			"buffer":0,
			"byteLength":2880,
			"byteOffset":13776,
			"target":34962
		},
		{
			"buffer":0,
			"byteLength":2880,
			"byteOffset":16656,
			"target":34962
		},
		{
			"buffer":0,
			"byteLength":1920,
			"byteOffset":19536,
			"target":34962
		},
		{
			"buffer":0,
			"byteLength":852,
			"byteOffset":21456,
			"target":34963
		},
		{
			"buffer":0,
			"byteLength":192,
			"byteOffset":22308,
			"target":34962
		},
		{
			"buffer":0,
			"byteLength":192,
			"byteOffset":22500,
			"target":34962
		},
		{
			"buffer":0,
			"byteLength":128,
			"byteOffset":22692,
			"target":34962
		},
		{
			"buffer":0,
			"byteLength":84,
			"byteOffset":22820,
			"target":34963
		},
		{
			"buffer":0,
			"byteLength":1164,
			"byteOffset":22904,
			"target":34962
		},
		{
			"buffer":0,
			"byteLength":1164,
			"byteOffset":24068,
			"target":34962
		},
		{
			"buffer":0,
			"byteLength":776,
			"byteOffset":25232,
			"target":34962
		},
		{
			"buffer":0,
			"byteLength":306,
			"byteOffset":26008,
			"target":34963
		},
		{
			"buffer":0,
			"byteLength":2880,
			"byteOffset":26316,
			"target":34962
		},
		{
			"buffer":0,
			"byteLength":2880,
			"byteOffset":29196,
			"target":34962
		},
		{
			"buffer":0,
			"byteLength":1920,
			"byteOffset":32076,
			"target":34962
		},
		{
			"buffer":0,
			"byteLength":192,
			"byteOffset":33996,
			"target":34962
		},
		{
			"buffer":0,
			"byteLength":192,
			"byteOffset":34188,
			"target":34962
		},
		{
			"buffer":0,
			"byteLength":128,
			"byteOffset":34380,
			"target":34962
		},
		{
			"buffer":0,
			"byteLength":1164,
			"byteOffset":34508,
			"target":34962
		},
		{
			"buffer":0,
			"byteLength":1164,
			"byteOffset":35672,
			"target":34962
		},
		{
			"buffer":0,
			"byteLength":776,
			"byteOffset":36836,
			"target":34962
		},
		{
			"buffer":0,
			"byteLength":2880,
			"byteOffset":37612,
			"target":34962
		},
		{
			"buffer":0,
			"byteLength":2880,
			"byteOffset":40492,
			"target":34962
		},
		{
			"buffer":0,
			"byteLength":1920,
			"byteOffset":43372,
			"target":34962
		},
		{
			"buffer":0,
			"byteLength":192,
			"byteOffset":45292,
			"target":34962
		},
		{
			"buffer":0,
			"byteLength":192,
			"byteOffset":45484,
			"target":34962
		},
		{
			"buffer":0,
			"byteLength":128,
			"byteOffset":45676,
			"target":34962
		},
		{
			"buffer":0,
			"byteLength":2880,
			"byteOffset":45804,
			"target":34962
		},
		{
			"buffer":0,
			"byteLength":2880,
			"byteOffset":48684,
			"target":34962
		},
		{
			"buffer":0,
			"byteLength":1920,
			"byteOffset":51564,
			"target":34962
		},
		{
			"buffer":0,
			"byteLength":192,
			"byteOffset":53484,
			"target":34962
		},
		{
			"buffer":0,
			"byteLength":192,
			"byteOffset":53676,
			"target":34962
		},
		{
			"buffer":0,
			"byteLength":128,
			"byteOffset":53868,
			"target":34962
		},
		{
			"buffer":0,
			"byteLength":1164,
			"byteOffset":53996,
			"target":34962
		},
		{
			"buffer":0,
			"byteLength":1164,
			"byteOffset":55160,
			"target":34962
		},
		{
			"buffer":0,
			"byteLength":776,
			"byteOffset":56324,
			"target":34962
		},
		{
			"buffer":0,
			"byteLength":1164,
			"byteOffset":57100,
			"target":34962
		},
		{
			"buffer":0,
			"byteLength":1164,
			"byteOffset":58264,
			"target":34962
		},
		{
			"buffer":0,
			"byteLength":776,
			"byteOffset":59428,
			"target":34962
		},
		{
			"buffer":0,
			"byteLength":2112,
			"byteOffset":60204,
			"target":34962
		},
		{
			"buffer":0,
			"byteLength":2112,
			"byteOffset":62316,
			"target":34962
		},
		{
			"buffer":0,
			"byteLength":1408,
			"byteOffset":64428,
			"target":34962
		},
		{
			"buffer":0,
			"byteLength":660,
			"byteOffset":65836,
			"target":34963
		},
		{
			"buffer":0,
			"byteLength":192,
			"byteOffset":66496,
			"target":34962
		},
		{
			"buffer":0,
			"byteLength":192,
			"byteOffset":66688,
			"target":34962
		},
		{
			"buffer":0,
			"byteLength":128,
			"byteOffset":66880,
			"target":34962
		},
		{
			"buffer":0,
			"byteLength":2112,
			"byteOffset":67008,
			"target":34962
		},
		{
			"buffer":0,
			"byteLength":2112,
			"byteOffset":69120,
			"target":34962
		},
		{
			"buffer":0,
			"byteLength":1408,
			"byteOffset":71232,
			"target":34962
		},
		{
			"buffer":0,
			"byteLength":660,
			"byteOffset":72640,
			"target":34963
		},
		{
			"buffer":0,
			"byteLength":192,
			"byteOffset":73300,
			"target":34962
		},
		{
			"buffer":0,
			"byteLength":192,
			"byteOffset":73492,
			"target":34962
		},
		{
			"buffer":0,
			"byteLength":128,
			"byteOffset":73684,
			"target":34962
		},
		{
			"buffer":0,
			"byteLength":2112,
			"byteOffset":73812,
			"target":34962
		},
		{
			"buffer":0,
			"byteLength":2112,
			"byteOffset":75924,
			"target":34962
		},
		{
			"buffer":0,
			"byteLength":1408,
			"byteOffset":78036,
			"target":34962
		},
		{
			"buffer":0,
			"byteLength":660,
			"byteOffset":79444,
			"target":34963
		},
		{
			"buffer":0,
			"byteLength":192,
			"byteOffset":80104,
			"target":34962
		},
		{
			"buffer":0,
			"byteLength":192,
			"byteOffset":80296,
			"target":34962
		},
		{
			"buffer":0,
			"byteLength":128,
			"byteOffset":80488,
			"target":34962
		}
	],
	"buffers":[
		{
			"byteLength":80616,
			"uri":"plane.bin"
		}
	]
}
