{
	"asset":{
		"generator":"Khronos glTF Blender I/O v4.3.47",
		"version":"2.0"
	},
	"scene":0,
	"scenes":[
		{
			"name":"Scene",
			"nodes":[
				0,
				1,
				2,
				3,
				4,
				6
			]
		}
	],
	"nodes":[
		{
			"mesh":0,
			"name":"Cube",
			"translation":[
				1.399999737739563,
				2.9000000953674316,
				-1.7000000476837158
			]
		},
		{
			"mesh":1,
			"name":"Cube.001",
			"translation":[
				-0.3999999761581421,
				2.9000000953674316,
				-1.7000000476837158
			]
		},
		{
			"mesh":2,
			"name":"Circle",
			"translation":[
				0,
				-0.20000000298023224,
				0
			]
		},
		{
			"mesh":3,
			"name":"Cube.008",
			"translation":[
				1.600000023841858,
				0.25,
				0
			]
		},
		{
			"mesh":4,
			"name":"Plane.001",
			"rotation":[
				0.7071068286895752,
				0,
				0,
				0.7071068286895752
			],
			"translation":[
				-1.5,
				0.15000000596046448,
				0
			]
		},
		{
			"mesh":5,
			"name":"Plane",
			"translation":[
				-0.8999999761581421,
				0,
				0
			]
		},
		{
			"children":[
				5
			],
			"name":"Empty",
			"translation":[
				1.600000023841858,
				2.450000047683716,
				0
			]
		}
	],
	"meshes":[
		{
			"name":"Cube.003",
			"primitives":[
				{
					"attributes":{
						"POSITION":0,
						"NORMAL":1,
						"TEXCOORD_0":2
					},
					"indices":3
				}
			]
		},
		{
			"name":"Cube.004",
			"primitives":[
				{
					"attributes":{
						"POSITION":4,
						"NORMAL":5,
						"TEXCOORD_0":6
					},
					"indices":7
				}
			]
		},
		{
			"name":"Circle",
			"primitives":[
				{
					"attributes":{
						"POSITION":8,
						"NORMAL":9,
						"TEXCOORD_0":10
					},
					"indices":11
				}
			]
		},
		{
			"name":"Cube.011",
			"primitives":[
				{
					"attributes":{
						"POSITION":12,
						"NORMAL":13,
						"TEXCOORD_0":14
					},
					"indices":15
				}
			]
		},
		{
			"name":"Plane.001",
			"primitives":[
				{
					"attributes":{
						"POSITION":16,
						"NORMAL":17,
						"TEXCOORD_0":18
					},
					"indices":19
				}
			]
		},
		{
			"name":"Plane",
			"primitives":[
				{
					"attributes":{
						"POSITION":20,
						"NORMAL":21,
						"TEXCOORD_0":22
					},
					"indices":23
				}
			]
		}
	],
	"accessors":[
		{
			"bufferView":0,
			"componentType":5126,
			"count":58,
			"max":[
				0.20000000298023224,
				0.20000000298023224,
				0.20000000298023224
			],
			"min":[
				-1.7000000476837158,
				-0.20000000298023224,
				-0.20000000298023224
			],
			"type":"VEC3"
		},
		{
			"bufferView":1,
			"componentType":5126,
			"count":58,
			"type":"VEC3"
		},
		{
			"bufferView":2,
			"componentType":5126,
			"count":58,
			"type":"VEC2"
		},
		{
			"bufferView":3,
			"componentType":5123,
			"count":90,
			"type":"SCALAR"
		},
		{
			"bufferView":4,
			"componentType":5126,
			"count":24,
			"max":[
				0.10000000149011612,
				0.10000000149011612,
				0.10000000149011612
			],
			"min":[
				-2.0999999046325684,
				-0.10000000149011612,
				-0.10000000149011612
			],
			"type":"VEC3"
		},
		{
			"bufferView":5,
			"componentType":5126,
			"count":24,
			"type":"VEC3"
		},
		{
			"bufferView":6,
			"componentType":5126,
			"count":24,
			"type":"VEC2"
		},
		{
			"bufferView":7,
			"componentType":5123,
			"count":36,
			"type":"SCALAR"
		},
		{
			"bufferView":8,
			"componentType":5126,
			"count":192,
			"max":[
				2.5,
				0.20000000298023224,
				2.5
			],
			"min":[
				-2.5,
				0,
				-2.5
			],
			"type":"VEC3"
		},
		{
			"bufferView":9,
			"componentType":5126,
			"count":192,
			"type":"VEC3"
		},
		{
			"bufferView":10,
			"componentType":5126,
			"count":192,
			"type":"VEC2"
		},
		{
			"bufferView":11,
			"componentType":5123,
			"count":372,
			"type":"SCALAR"
		},
		{
			"bufferView":12,
			"componentType":5126,
			"count":36,
			"max":[
				0.015465646982192993,
				2.200000047683716,
				0.800000011920929
			],
			"min":[
				-0.6499999761581421,
				-0.25,
				-0.800000011920929
			],
			"type":"VEC3"
		},
		{
			"bufferView":13,
			"componentType":5126,
			"count":36,
			"type":"VEC3"
		},
		{
			"bufferView":14,
			"componentType":5126,
			"count":36,
			"type":"VEC2"
		},
		{
			"bufferView":15,
			"componentType":5123,
			"count":60,
			"type":"SCALAR"
		},
		{
			"bufferView":16,
			"componentType":5126,
			"count":24,
			"max":[
				1.6294167041778564,
				0,
				0.15000000596046448
			],
			"min":[
				-0.15000000596046448,
				-0.1400000900030136,
				-2.298870325088501
			],
			"type":"VEC3"
		},
		{
			"bufferView":17,
			"componentType":5126,
			"count":24,
			"type":"VEC3"
		},
		{
			"bufferView":18,
			"componentType":5126,
			"count":24,
			"type":"VEC2"
		},
		{
			"bufferView":19,
			"componentType":5123,
			"count":36,
			"type":"SCALAR"
		},
		{
			"bufferView":20,
			"componentType":5126,
			"count":88,
			"max":[
				1.5,
				0.6000000238418579,
				1.5
			],
			"min":[
				-1.5,
				-0.5,
				-1.5
			],
			"type":"VEC3"
		},
		{
			"bufferView":21,
			"componentType":5126,
			"count":88,
			"type":"VEC3"
		},
		{
			"bufferView":22,
			"componentType":5126,
			"count":88,
			"type":"VEC2"
		},
		{
			"bufferView":23,
			"componentType":5123,
			"count":180,
			"type":"SCALAR"
		}
	],
	"bufferViews":[
		{
			"buffer":0,
			"byteLength":696,
			"byteOffset":0,
			"target":34962
		},
		{
			"buffer":0,
			"byteLength":696,
			"byteOffset":696,
			"target":34962
		},
		{
			"buffer":0,
			"byteLength":464,
			"byteOffset":1392,
			"target":34962
		},
		{
			"buffer":0,
			"byteLength":180,
			"byteOffset":1856,
			"target":34963
		},
		{
			"buffer":0,
			"byteLength":288,
			"byteOffset":2036,
			"target":34962
		},
		{
			"buffer":0,
			"byteLength":288,
			"byteOffset":2324,
			"target":34962
		},
		{
			"buffer":0,
			"byteLength":192,
			"byteOffset":2612,
			"target":34962
		},
		{
			"buffer":0,
			"byteLength":72,
			"byteOffset":2804,
			"target":34963
		},
		{
			"buffer":0,
			"byteLength":2304,
			"byteOffset":2876,
			"target":34962
		},
		{
			"buffer":0,
			"byteLength":2304,
			"byteOffset":5180,
			"target":34962
		},
		{
			"buffer":0,
			"byteLength":1536,
			"byteOffset":7484,
			"target":34962
		},
		{
			"buffer":0,
			"byteLength":744,
			"byteOffset":9020,
			"target":34963
		},
		{
			"buffer":0,
			"byteLength":432,
			"byteOffset":9764,
			"target":34962
		},
		{
			"buffer":0,
			"byteLength":432,
			"byteOffset":10196,
			"target":34962
		},
		{
			"buffer":0,
			"byteLength":288,
			"byteOffset":10628,
			"target":34962
		},
		{
			"buffer":0,
			"byteLength":120,
			"byteOffset":10916,
			"target":34963
		},
		{
			"buffer":0,
			"byteLength":288,
			"byteOffset":11036,
			"target":34962
		},
		{
			"buffer":0,
			"byteLength":288,
			"byteOffset":11324,
			"target":34962
		},
		{
			"buffer":0,
			"byteLength":192,
			"byteOffset":11612,
			"target":34962
		},
		{
			"buffer":0,
			"byteLength":72,
			"byteOffset":11804,
			"target":34963
		},
		{
			"buffer":0,
			"byteLength":1056,
			"byteOffset":11876,
			"target":34962
		},
		{
			"buffer":0,
			"byteLength":1056,
			"byteOffset":12932,
			"target":34962
		},
		{
			"buffer":0,
			"byteLength":704,
			"byteOffset":13988,
			"target":34962
		},
		{
			"buffer":0,
			"byteLength":360,
			"byteOffset":14692,
			"target":34963
		}
	],
	"buffers":[
		{
			"byteLength":15052,
			"uri":"tour_guide_1_1.bin"
		}
	]
}
