{
	"asset":{
		"generator":"Khronos glTF Blender I/O v4.3.47",
		"version":"2.0"
	},
	"scene":0,
	"scenes":[
		{
			"name":"Scene",
			"nodes":[
				0
			]
		}
	],
	"nodes":[
		{
			"mesh":0,
			"name":"Cube"
		}
	],
	"materials":[
		{
			"doubleSided":true,
			"name":"rocs",
			"pbrMetallicRoughness":{
				"baseColorFactor":[
					0.009609977714717388,
					0.010813758708536625,
					0.021291572600603104,
					1
				],
				"metallicFactor":0.5490909218788147,
				"roughnessFactor":0.5
			}
		}
	],
	"meshes":[
		{
			"name":"Cube.001",
			"primitives":[
				{
					"attributes":{
						"POSITION":0,
						"NORMAL":1,
						"TEXCOORD_0":2
					},
					"indices":3,
					"material":0
				}
			]
		}
	],
	"accessors":[
		{
			"bufferView":0,
			"componentType":5126,
			"count":7121,
			"max":[
				2.5,
				2.4999282360076904,
				2.500194787979126
			],
			"min":[
				-2.5,
				-2.5,
				-2.4999396800994873
			],
			"type":"VEC3"
		},
		{
			"bufferView":1,
			"componentType":5126,
			"count":7121,
			"type":"VEC3"
		},
		{
			"bufferView":2,
			"componentType":5126,
			"count":7121,
			"type":"VEC2"
		},
		{
			"bufferView":3,
			"componentType":5123,
			"count":7362,
			"type":"SCALAR"
		}
	],
	"bufferViews":[
		{
			"buffer":0,
			"byteLength":85452,
			"byteOffset":0,
			"target":34962
		},
		{
			"buffer":0,
			"byteLength":85452,
			"byteOffset":85452,
			"target":34962
		},
		{
			"buffer":0,
			"byteLength":56968,
			"byteOffset":170904,
			"target":34962
		},
		{
			"buffer":0,
			"byteLength":14724,
			"byteOffset":227872,
			"target":34963
		}
	],
	"buffers":[
		{
			"byteLength":242596,
			"uri":"roc1.bin"
		}
	]
}
