{
	"asset":{
		"generator":"Khronos glTF Blender I/O v4.3.47",
		"version":"2.0"
	},
	"scene":0,
	"scenes":[
		{
			"name":"Scene",
			"nodes":[
				0
			]
		}
	],
	"nodes":[
		{
			"mesh":0,
			"name":"Cube"
		}
	],
	"materials":[
		{
			"doubleSided":true,
			"name":"body",
			"pbrMetallicRoughness":{
				"baseColorFactor":[
					0.01036735437810421,
					0.016459902748465538,
					0.016325348988175392,
					1
				],
				"metallicFactor":0,
				"roughnessFactor":0.5
			}
		}
	],
	"meshes":[
		{
			"name":"Cube.001",
			"primitives":[
				{
					"attributes":{
						"POSITION":0,
						"NORMAL":1,
						"TEXCOORD_0":2
					},
					"indices":3,
					"material":0
				}
			]
		}
	],
	"accessors":[
		{
			"bufferView":0,
			"componentType":5126,
			"count":52407,
			"max":[
				1.4965306520462036,
				1.497912049293518,
				2.4503612518310547
			],
			"min":[
				-1.494613528251648,
				-1.492026925086975,
				-6.489222526550293
			],
			"type":"VEC3"
		},
		{
			"bufferView":1,
			"componentType":5126,
			"count":52407,
			"type":"VEC3"
		},
		{
			"bufferView":2,
			"componentType":5126,
			"count":52407,
			"type":"VEC2"
		},
		{
			"bufferView":3,
			"componentType":5123,
			"count":79236,
			"type":"SCALAR"
		}
	],
	"bufferViews":[
		{
			"buffer":0,
			"byteLength":628884,
			"byteOffset":0,
			"target":34962
		},
		{
			"buffer":0,
			"byteLength":628884,
			"byteOffset":628884,
			"target":34962
		},
		{
			"buffer":0,
			"byteLength":419256,
			"byteOffset":1257768,
			"target":34962
		},
		{
			"buffer":0,
			"byteLength":158472,
			"byteOffset":1677024,
			"target":34963
		}
	],
	"buffers":[
		{
			"byteLength":1835496,
			"uri":"roc2.bin"
		}
	]
}
